<?xml version="1.0" standalone="no"?>
<!DOCTYPE svg PUBLIC "-//W3C//DTD SVG 20010904//EN"
 "http://www.w3.org/TR/2001/REC-SVG-20010904/DTD/svg10.dtd">
<svg version="1.0" xmlns="http://www.w3.org/2000/svg"
 width="512.000000pt" height="512.000000pt" viewBox="0 0 512.000000 512.000000"
 preserveAspectRatio="xMidYMid meet">
<metadata>
Created by potrace 1.14, written by Peter Selinger 2001-2017
</metadata>
<g transform="translate(0.000000,512.000000) scale(0.100000,-0.100000)"
fill="#000000" stroke="none">
<path d="M2325 4469 c-57 -7 -203 -29 -235 -34 -43 -8 -196 -50 -270 -75 -449
-147 -838 -438 -1090 -814 -51 -76 -161 -281 -173 -321 -3 -11 -19 -58 -36
-105 -33 -90 -75 -282 -86 -390 -16 -162 -5 -347 31 -535 30 -160 143 -444
217 -546 l18 -26 -135 -360 c-148 -393 -156 -426 -117 -501 36 -71 113 -122
181 -122 17 0 214 36 438 81 452 90 415 83 497 99 59 11 62 10 170 -30 264
-100 506 -143 805 -144 246 -1 350 9 550 56 47 11 92 21 100 23 27 6 204 66
240 82 107 46 163 72 235 112 83 45 201 119 247 155 14 12 41 32 59 46 212
161 422 421 544 675 119 246 175 492 175 760 0 150 -5 211 -30 340 -154 794
-871 1433 -1750 1560 -25 3 -58 8 -75 11 -57 8 -450 11 -510 3z m333 -420 c70
-2 244 -24 333 -43 140 -30 360 -115 492 -190 235 -134 458 -347 587 -560 82
-136 150 -318 175 -466 3 -19 8 -48 12 -65 12 -56 9 -259 -4 -345 -30 -194
-84 -347 -181 -510 -250 -419 -736 -722 -1260 -786 -26 -3 -63 -7 -82 -10 -42
-5 -303 -5 -345 0 -118 15 -135 17 -215 31 -85 16 -288 82 -388 126 -92 41
-125 44 -239 21 -54 -12 -123 -26 -153 -31 -30 -6 -64 -12 -75 -15 -155 -33
-329 -65 -333 -62 -3 3 1 20 9 38 8 18 14 35 15 38 0 3 4 12 7 20 4 8 36 96
73 195 59 161 66 185 61 233 -3 29 -14 66 -24 81 -96 151 -137 230 -204 396
-13 32 -47 185 -55 245 -25 198 4 458 71 625 43 108 64 153 110 230 274 462
813 773 1395 802 63 3 117 7 119 9 2 2 7 2 10 -1 4 -2 44 -5 89 -6z"/>
<path d="M1685 2772 c-118 -21 -188 -100 -188 -212 -1 -132 113 -230 243 -209
163 26 235 216 131 347 -39 48 -129 84 -186 74z"/>
<path d="M2505 2765 c-104 -37 -155 -104 -155 -205 0 -130 94 -216 227 -208
80 5 136 42 172 112 64 125 -14 287 -146 302 -21 3 -45 6 -53 7 -8 2 -28 -2
-45 -8z"/>
<path d="M3380 2770 c-167 -30 -237 -232 -122 -353 113 -119 313 -74 358 80
37 129 -31 242 -162 271 -22 4 -55 5 -74 2z"/>
</g>
</svg>
